<svg xmlns="http://www.w3.org/2000/svg" viewBox="0 0 220.41 238.08"><defs><style>.cls-1{fill:#034982;}.cls-2{fill:#ea2621;}</style></defs><g id="Capa_2" data-name="Capa 2"><g id="Capa_1-2" data-name="Capa 1"><path class="cls-1" d="M10.84,189.52H0V139.46H10.84Z"/><path class="cls-1" d="M19.47,139.46H35c16.08,0,26.85,10.83,26.85,25.1,0,14.08-11.06,25-26.92,25H19.47ZM30.32,181h1.77c13.35,0,18.51-6.63,18.51-16.53,0-10.88-6.19-16.53-18.51-16.53H30.32Z"/><path class="cls-1" d="M78.71,148v11H96v8.5H78.71V181H96.63v8.5H67.86V139.46H96.63V148Z"/><path class="cls-1" d="M141.77,152.74a16.75,16.75,0,0,0-12.24-5.31c-10.4,0-16.38,8.63-16.38,17.26,0,8.43,6.2,16.87,16.31,16.87a17.75,17.75,0,0,0,12.31-5.32v11.62a31.66,31.66,0,0,1-12.61,3c-15.64,0-27.22-12.15-27.22-26,0-14.21,11.14-26.75,27.44-26.75a28.12,28.12,0,0,1,12.39,2.92Z"/><path class="cls-1" d="M160.51,148v11h17.26v8.5H160.51V181h17.93v8.5H149.67V139.46h28.77V148Z"/><path class="cls-1" d="M197.25,189.52H186.4V139.46h14.75c11.66,0,19.26,4.19,19.26,15.54,0,10.62-6.42,15.8-17.78,15.8h-5.38Zm0-26.82h2.21c6.42,0,9.88-1.26,9.88-7.77s-4.13-7.37-10.18-7.37h-1.91Z"/><path class="cls-2" d="M1.48,217.12H0v-13.3H1.48Z"/><path class="cls-2" d="M5.15,203.25l10.37,10.87v-10.3H17v13.9L6.63,206.87v10.25H5.15Z"/><path class="cls-2" d="M24.18,217.12H22.7V205.19H19.49v-1.37h7.94v1.37H24.18Z"/><path class="cls-2" d="M29.82,203.82h6.9v1.37H31.31v3.95h5.25v1.38H31.31v5.22h5.41v1.38h-6.9Z"/><path class="cls-2" d="M41.61,217.12H40.12v-13.3h1.93c2.52,0,4.87.67,4.87,3.67a3.47,3.47,0,0,1-3.34,3.66l4.24,6H46l-4-5.84h-.37Zm0-7.15h.45c1.68,0,3.37-.31,3.37-2.38s-1.6-2.4-3.38-2.4h-.44Z"/><path class="cls-2" d="M50.65,203.25,61,214.12v-10.3h1.48v13.9L52.13,206.87v10.25H50.65Z"/><path class="cls-2" d="M66.15,203.82h6.9v1.37H67.64v3.95h5.25v1.38H67.64v5.22h5.41v1.38h-6.9Z"/><path class="cls-2" d="M80,217.12H78.5V205.19H75.29v-1.37h7.94v1.37H80Z"/><path class="cls-2" d="M91.94,203.82h2.5a7.25,7.25,0,0,1,5.19,1.6,6.83,6.83,0,0,1,0,10,7.09,7.09,0,0,1-5.26,1.68H91.94Zm2.56,11.92a5.61,5.61,0,0,0,4.2-1.37,5.46,5.46,0,0,0-.07-7.89,5.71,5.71,0,0,0-4.13-1.29H93.42v10.55Z"/><path class="cls-2" d="M104.78,203.82h6.9v1.37h-5.42v3.95h5.26v1.38h-5.26v5.22h5.42v1.38h-6.9Z"/><path class="cls-2" d="M122.87,215.74h3.67v1.38h-5.15v-13.3h1.48Z"/><path class="cls-2" d="M130.88,213.34l-1.61,3.78h-1.62l6.14-13.94,6,13.94h-1.64l-1.57-3.78Zm2.88-6.7L131.48,212H136Z"/><path class="cls-2" d="M148.13,206.41a2.45,2.45,0,0,0-2.29-1.45,2.11,2.11,0,0,0-2.21,2.07c0,1.14,1.18,1.67,2.08,2.08l.88.39c1.73.76,3.2,1.62,3.2,3.74a4.2,4.2,0,0,1-8.33.67l1.45-.41a2.73,2.73,0,0,0,2.66,2.47,2.68,2.68,0,0,0,2.74-2.59c0-1.55-1.22-2.08-2.46-2.65l-.81-.35c-1.55-.71-2.89-1.5-2.89-3.41a3.49,3.49,0,0,1,3.72-3.38,3.8,3.8,0,0,1,3.44,2.06Z"/><path class="cls-2" d="M169.29,206.73a5.65,5.65,0,0,0-4-1.77,5.51,5.51,0,0,0,0,11,5.79,5.79,0,0,0,4-1.76V216a6.81,6.81,0,0,1-4,1.31,6.88,6.88,0,1,1,0-13.76,6.4,6.4,0,0,1,4,1.3Z"/><path class="cls-2" d="M185.88,210.49a6.94,6.94,0,1,1-6.94-6.9A6.9,6.9,0,0,1,185.88,210.49Zm-12.39,0a5.45,5.45,0,1,0,5.45-5.51A5.49,5.49,0,0,0,173.49,210.47Z"/><path class="cls-2" d="M194.8,206.41a2.45,2.45,0,0,0-2.3-1.45,2.11,2.11,0,0,0-2.2,2.07c0,1.14,1.18,1.67,2.08,2.08l.88.39c1.73.76,3.2,1.62,3.2,3.74a4.2,4.2,0,0,1-8.33.67l1.44-.41a2.75,2.75,0,0,0,2.67,2.47,2.67,2.67,0,0,0,2.73-2.59c0-1.55-1.21-2.08-2.45-2.65l-.81-.35c-1.55-.71-2.89-1.5-2.89-3.41a3.48,3.48,0,0,1,3.72-3.38,3.81,3.81,0,0,1,3.44,2.06Z"/><path class="cls-2" d="M201.5,213.34l-1.61,3.78h-1.62l6.14-13.94,6,13.94h-1.64l-1.57-3.78Zm2.87-6.7L202.1,212h4.5Z"/><path class="cls-2" d="M218.75,206.41a2.45,2.45,0,0,0-2.3-1.45,2.11,2.11,0,0,0-2.2,2.07c0,1.14,1.18,1.67,2.08,2.08l.88.39c1.73.76,3.2,1.62,3.2,3.74a4.2,4.2,0,0,1-8.33.67l1.45-.41a2.73,2.73,0,0,0,2.66,2.47,2.67,2.67,0,0,0,2.73-2.59c0-1.55-1.21-2.08-2.45-2.65l-.81-.35c-1.55-.71-2.89-1.5-2.89-3.41a3.48,3.48,0,0,1,3.72-3.38,3.81,3.81,0,0,1,3.44,2.06Z"/><path class="cls-2" d="M7.8,224.23h6.9v1.38H9.29v3.95h5.25v1.38H9.29v5.22H14.7v1.38H7.8Z"/><path class="cls-2" d="M19.83,223.48l4.84,11.16,4.85-11.16,2.7,14.06H30.7l-1.71-9h0l-4.28,9.54-4.27-9.54h0l-1.71,9H17.13Z"/><path class="cls-2" d="M36.27,237.54H34.79V224.23H37a5.63,5.63,0,0,1,3.3.71,3.68,3.68,0,0,1,1.5,3,3.73,3.73,0,0,1-1.28,2.86,4.77,4.77,0,0,1-3.15.89H36.27Zm0-7.2h1c1.64,0,3-.49,3-2.4,0-2.17-1.74-2.33-3.47-2.33h-.55Z"/><path class="cls-2" d="M46,237.54H44.54V224.23h1.92c2.53,0,4.87.68,4.87,3.67A3.46,3.46,0,0,1,48,231.57l4.23,6H50.42l-4-5.84H46Zm0-7.15h.46c1.68,0,3.37-.32,3.37-2.38s-1.6-2.4-3.39-2.4H46Z"/><path class="cls-2" d="M55,224.23h6.9v1.38H56.47v3.95h5.25v1.38H56.47v5.22h5.41v1.38H55Z"/><path class="cls-2" d="M71.32,226.83a2.45,2.45,0,0,0-2.3-1.45,2.11,2.11,0,0,0-2.2,2.07c0,1.14,1.18,1.67,2.08,2.08l.88.39c1.73.75,3.19,1.62,3.19,3.74a4.19,4.19,0,0,1-8.32.67l1.44-.41a2.75,2.75,0,0,0,2.67,2.47,2.67,2.67,0,0,0,2.73-2.59c0-1.56-1.21-2.08-2.45-2.65l-.81-.35c-1.55-.71-2.9-1.5-2.9-3.41A3.49,3.49,0,0,1,69.06,224a3.81,3.81,0,0,1,3.44,2.06Z"/><path class="cls-2" d="M78,233.76l-1.61,3.78H74.79l6.14-13.94,6,13.94H85.27l-1.57-3.78Zm2.87-6.7-2.27,5.33h4.5Z"/><path class="cls-2" d="M90.72,237.54H89.23V224.23h1.93c2.52,0,4.87.68,4.87,3.67a3.47,3.47,0,0,1-3.34,3.67l4.24,6H95.11l-4-5.84h-.37Zm0-7.15h.45c1.68,0,3.37-.32,3.37-2.38s-1.6-2.4-3.38-2.4h-.44Z"/><path class="cls-2" d="M101.19,237.54H99.71V224.23h1.48Z"/><path class="cls-2" d="M106.76,233.76l-1.6,3.78h-1.62l6.14-13.94,6,13.94H114l-1.57-3.78Zm2.88-6.7-2.28,5.33h4.5Z"/><path class="cls-2" d="M119.46,236.16h3.67v1.38H118V224.23h1.48Z"/><path class="cls-2" d="M131.24,224.23h2.5a7.26,7.26,0,0,1,5.19,1.61,6.83,6.83,0,0,1,0,10,7.09,7.09,0,0,1-5.26,1.68h-2.47Zm2.56,11.93a5.58,5.58,0,0,0,4.2-1.38,5.43,5.43,0,0,0-.07-7.88,5.71,5.71,0,0,0-4.13-1.29h-1.08v10.55Z"/><path class="cls-2" d="M144.08,224.23H151v1.38h-5.42v3.95h5.26v1.38h-5.26v5.22H151v1.38h-6.9Z"/><path class="cls-2" d="M161.63,237.54H159V224.23h3.53c2.79,0,4.61,1.12,4.61,4.13,0,2.83-1.54,4.2-4.25,4.2h-1.29Zm0-7.13h.53c1.53,0,2.36-.34,2.36-2.06s-1-2-2.43-2h-.46Z"/><path class="cls-2" d="M170.53,234.73l-1.09,2.81H166.7l5.19-13.66h2l5,13.66h-2.77l-1-2.81Zm2.24-6.95h0l-1.47,4.84h3.16Z"/><path class="cls-2" d="M183.22,235.28h3.66v2.26h-6.26V224.23h2.6Z"/><path class="cls-2" d="M197.48,227.76a3.82,3.82,0,0,0-2.92-1.41c-2.49,0-3.92,2.3-3.92,4.59s1.48,4.48,3.9,4.48a4,4,0,0,0,2.94-1.41v3.09a7.09,7.09,0,0,1-3,.79A6.71,6.71,0,0,1,188,231c0-3.77,2.66-7.11,6.56-7.11a6.08,6.08,0,0,1,3,.78Z"/><path class="cls-2" d="M206,237.89c-4.06,0-6.58-3.11-6.58-7s2.61-7,6.58-7,6.58,3,6.58,7S210.08,237.89,206,237.89Zm0-11.45a4.08,4.08,0,0,0-3.9,4.32c0,2.05,1,4.57,3.9,4.57s3.9-2.52,3.9-4.57A4.08,4.08,0,0,0,206,226.44Z"/><path class="cls-1" d="M220.41,108.17c0,1,0,1.91-.11,2.84a39.06,39.06,0,0,1-3.74,14.2h-51a71.68,71.68,0,0,0,7.8-14.2H206a24.21,24.21,0,0,0,.16-2.84,25.39,25.39,0,0,0-25.4-25.4,21,21,0,0,0-2.11.1,71.36,71.36,0,0,0-1.58-14.13c1.22-.11,2.45-.17,3.69-.17A39.6,39.6,0,0,1,220.41,108.17Z"/><path class="cls-2" d="M189.44,62a47.16,47.16,0,0,0-14.93-.38,72.16,72.16,0,0,0-50.92-47V0A86.25,86.25,0,0,1,189.44,62Z"/><path class="cls-1" d="M169.63,84.4a63,63,0,0,1-14.9,40.81H91a52.81,52.81,0,0,0,4-14.2H147.6a49.43,49.43,0,0,0,7.45-32.72,39.24,39.24,0,0,1,13.1-7.58A64.23,64.23,0,0,1,169.63,84.4Z"/><path class="cls-2" d="M166.09,63.5a46.26,46.26,0,0,0-12.8,6.55,49.31,49.31,0,0,0-29.7-31.68V23.42A63.55,63.55,0,0,1,166.09,63.5Z"/><path class="cls-1" d="M116.77,21.9V36.25a50.1,50.1,0,0,0-7.89-.63A49,49,0,0,0,60,79.26a29.29,29.29,0,0,0-13.72-4.63,23.56,23.56,0,0,0-2.38-.11,29.72,29.72,0,0,0-29.72,29.71,30.1,30.1,0,0,0,.86,7.15H72.78a29.46,29.46,0,0,0,.87-7.14c0-.86-.05-1.72-.11-2.57a39.71,39.71,0,0,1,13.1-7.58c.31,1.28.57,2.61.76,3.93h0c0,.16,0,.32,0,.48.08.58.14,1.17.19,1.75,0,.41.08.82.11,1.23,0,.66.06,1.33.06,2,0,.25,0,.51,0,.76a43.7,43.7,0,0,1-5.54,21.35H5.54a43.08,43.08,0,0,1-5-14.2A45.48,45.48,0,0,1,0,104.23,43.92,43.92,0,0,1,43.93,60.32a43.39,43.39,0,0,1,6.28.45,60.54,60.54,0,0,1,4.17-8.33,63.31,63.31,0,0,1,54.5-31A64.28,64.28,0,0,1,116.77,21.9Z"/></g></g></svg>