<svg xmlns="http://www.w3.org/2000/svg" viewBox="0 0 220.41 190.85"><defs><style>.cls-1{fill:#034982;}.cls-2{fill:#ea2621;}</style></defs><g id="Capa_2" data-name="Capa 2"><g id="Capa_1-2" data-name="Capa 1"><path class="cls-1" d="M10.84,189.52H0V139.46H10.84Z"/><path class="cls-1" d="M19.47,139.46H35c16.08,0,26.85,10.83,26.85,25.1,0,14.08-11.06,25-26.92,25H19.47ZM30.32,181h1.77c13.35,0,18.51-6.63,18.51-16.53,0-10.88-6.19-16.53-18.51-16.53H30.32Z"/><path class="cls-1" d="M78.71,148v11H96v8.5H78.71V181H96.63v8.5H67.86V139.46H96.63V148Z"/><path class="cls-1" d="M141.77,152.74a16.75,16.75,0,0,0-12.24-5.31c-10.4,0-16.38,8.63-16.38,17.26,0,8.43,6.2,16.87,16.31,16.87a17.75,17.75,0,0,0,12.31-5.32v11.62a31.66,31.66,0,0,1-12.61,3c-15.64,0-27.22-12.15-27.22-26,0-14.21,11.14-26.75,27.44-26.75a28.12,28.12,0,0,1,12.39,2.92Z"/><path class="cls-1" d="M160.51,148v11h17.26v8.5H160.51V181h17.93v8.5H149.67V139.46h28.77V148Z"/><path class="cls-1" d="M197.25,189.52H186.4V139.46h14.75c11.66,0,19.26,4.19,19.26,15.54,0,10.62-6.42,15.8-17.78,15.8h-5.38Zm0-26.82h2.21c6.42,0,9.88-1.26,9.88-7.77s-4.13-7.37-10.18-7.37h-1.91Z"/><path class="cls-1" d="M220.41,108.17c0,1,0,1.91-.11,2.84a39.06,39.06,0,0,1-3.74,14.2h-51a71.68,71.68,0,0,0,7.8-14.2H206a24.21,24.21,0,0,0,.16-2.84,25.39,25.39,0,0,0-25.4-25.4,21,21,0,0,0-2.11.1,71.36,71.36,0,0,0-1.58-14.13c1.22-.11,2.45-.17,3.69-.17A39.6,39.6,0,0,1,220.41,108.17Z"/><path class="cls-2" d="M189.44,62a47.16,47.16,0,0,0-14.93-.38,72.16,72.16,0,0,0-50.92-47V0A86.25,86.25,0,0,1,189.44,62Z"/><path class="cls-1" d="M169.63,84.4a63,63,0,0,1-14.9,40.81H91a52.81,52.81,0,0,0,4-14.2H147.6a49.43,49.43,0,0,0,7.45-32.72,39.24,39.24,0,0,1,13.1-7.58A64.23,64.23,0,0,1,169.63,84.4Z"/><path class="cls-2" d="M166.09,63.5a46.26,46.26,0,0,0-12.8,6.55,49.31,49.31,0,0,0-29.7-31.68V23.42A63.55,63.55,0,0,1,166.09,63.5Z"/><path class="cls-1" d="M116.77,21.9V36.25a50.1,50.1,0,0,0-7.89-.63A49,49,0,0,0,60,79.26a29.29,29.29,0,0,0-13.72-4.63,23.56,23.56,0,0,0-2.38-.11,29.72,29.72,0,0,0-29.72,29.71,30.1,30.1,0,0,0,.86,7.15H72.78a29.46,29.46,0,0,0,.87-7.14c0-.86-.05-1.72-.11-2.57a39.71,39.71,0,0,1,13.1-7.58c.31,1.28.57,2.61.76,3.93h0c0,.16,0,.32,0,.48.08.58.14,1.17.19,1.75,0,.41.08.82.11,1.23,0,.66.06,1.33.06,2,0,.25,0,.51,0,.76a43.7,43.7,0,0,1-5.54,21.35H5.54a43.08,43.08,0,0,1-5-14.2A45.48,45.48,0,0,1,0,104.23,43.92,43.92,0,0,1,43.93,60.32a43.39,43.39,0,0,1,6.28.45,60.54,60.54,0,0,1,4.17-8.33,63.31,63.31,0,0,1,54.5-31A64.28,64.28,0,0,1,116.77,21.9Z"/></g></g></svg>