<svg xmlns="http://www.w3.org/2000/svg" viewBox="0 0 220.41 125.58"><defs><style>.cls-1{fill:#034982;}.cls-2{fill:#ea2621;}</style></defs><g id="Capa_2" data-name="Capa 2"><g id="Capa_1-2" data-name="Capa 1"><path class="cls-1" d="M220.41,108.17c0,1,0,1.91-.11,2.84a39.06,39.06,0,0,1-3.74,14.2h-51a71.68,71.68,0,0,0,7.8-14.2H206a24.21,24.21,0,0,0,.16-2.84,25.39,25.39,0,0,0-25.4-25.4,21,21,0,0,0-2.11.1,71.36,71.36,0,0,0-1.58-14.13c1.22-.11,2.45-.17,3.69-.17A39.6,39.6,0,0,1,220.41,108.17Z"/><path class="cls-2" d="M189.44,62a47.16,47.16,0,0,0-14.93-.38,72.16,72.16,0,0,0-50.92-47V0A86.25,86.25,0,0,1,189.44,62Z"/><path class="cls-1" d="M169.63,84.4a63,63,0,0,1-14.9,40.81H91a52.81,52.81,0,0,0,4-14.2H147.6a49.43,49.43,0,0,0,7.45-32.72,39.24,39.24,0,0,1,13.1-7.58A64.23,64.23,0,0,1,169.63,84.4Z"/><path class="cls-2" d="M166.09,63.5a46.26,46.26,0,0,0-12.8,6.55,49.31,49.31,0,0,0-29.7-31.68V23.42A63.55,63.55,0,0,1,166.09,63.5Z"/><path class="cls-1" d="M116.77,21.9V36.25a50.1,50.1,0,0,0-7.89-.63A49,49,0,0,0,60,79.26a29.29,29.29,0,0,0-13.72-4.63,23.56,23.56,0,0,0-2.38-.11,29.72,29.72,0,0,0-29.72,29.71,30.1,30.1,0,0,0,.86,7.15H72.78a29.46,29.46,0,0,0,.87-7.14c0-.86-.05-1.72-.11-2.57a39.71,39.71,0,0,1,13.1-7.58c.31,1.28.57,2.61.76,3.93h0c0,.16,0,.32,0,.48.08.58.14,1.17.19,1.75,0,.41.08.82.11,1.23,0,.66.06,1.33.06,2,0,.25,0,.51,0,.76a43.7,43.7,0,0,1-5.54,21.35H5.54a43.08,43.08,0,0,1-5-14.2A45.48,45.48,0,0,1,0,104.23,43.92,43.92,0,0,1,43.93,60.32a43.39,43.39,0,0,1,6.28.45,60.54,60.54,0,0,1,4.17-8.33,63.31,63.31,0,0,1,54.5-31A64.28,64.28,0,0,1,116.77,21.9Z"/></g></g></svg>